<svg width="560" height="558" viewBox="0 0 560 558" fill="none" xmlns="http://www.w3.org/2000/svg">
<circle cx="280.292" cy="279" r="279" fill="#F5FAFF"/>
<circle cx="280.292" cy="279" r="224.32" fill="#E6F3FF"/>
<circle cx="280.292" cy="279" r="172.462" fill="#D7ECFF"/>
<g opacity="0.2">
<g filter="url(#filter0_d_228_14471)">
<path d="M389.048 80.1537C389.903 77.1607 393.022 75.4273 396.015 76.282L407.252 79.491C410.245 80.3457 411.979 83.4649 411.124 86.4579L407.915 97.6951C407.06 100.688 403.941 102.422 400.948 101.567L389.711 98.3578C386.718 97.5031 384.984 94.3839 385.839 91.3909L389.048 80.1537Z" fill="black"/>
<path d="M393.197 96.5922C394.754 97.0367 396.379 96.1341 396.823 94.5772L397.629 91.7568L394.808 90.9514C393.251 90.5068 391.627 91.4095 391.182 92.9664C390.738 94.5232 391.641 96.1476 393.197 96.5922Z" fill="#0ACF83"/>
<path d="M392.793 87.3256C393.238 85.7688 394.862 84.8661 396.419 85.3107L399.239 86.1161L397.629 91.7568L394.808 90.9514C393.251 90.5068 392.349 88.8825 392.793 87.3256V87.3256Z" fill="#A259FF"/>
<path d="M394.404 81.685C394.849 80.1281 396.473 79.2254 398.03 79.67L400.85 80.4754L399.24 86.1162L396.419 85.3108C394.862 84.8662 393.96 83.2419 394.404 81.685Z" fill="#F24E1E"/>
<path d="M400.85 80.4753L403.671 81.2808C405.227 81.7253 406.13 83.3497 405.686 84.9066C405.241 86.4634 403.617 87.3661 402.06 86.9215L399.239 86.1161L400.85 80.4753V80.4753Z" fill="#FF7262"/>
<path d="M404.075 90.5473C403.63 92.1041 402.006 93.0068 400.449 92.5623C398.892 92.1177 397.989 90.4933 398.434 88.9365C398.879 87.3796 400.503 86.4769 402.06 86.9215C403.617 87.3661 404.519 88.9904 404.075 90.5473Z" fill="#1ABCFE"/>
</g>
<path d="M296.294 434.295L316.53 440.074L310.909 459.758L290.673 453.979L296.294 434.295Z" fill="#261300"/>
<path d="M295.637 433.113L289.49 454.637L311.566 460.941L317.713 439.417L295.637 433.113ZM296.294 434.295L316.53 440.074L310.909 459.758L290.673 453.979L296.294 434.295Z" fill="#FF7C00"/>
<path d="M299.818 447.489L298.304 450.04C298.264 450.109 298.231 450.119 298.139 450.093L296.787 449.707C296.695 449.681 296.685 449.648 296.735 449.543L301.958 441.146C302.051 440.993 302.121 440.854 302.268 440.408C302.286 440.344 302.322 440.324 302.368 440.337L304.3 440.889C304.364 440.907 304.386 440.934 304.384 441.013L304.474 451.773C304.472 451.852 304.44 451.892 304.367 451.871L302.84 451.435C302.766 451.414 302.725 451.383 302.725 451.313L302.753 448.326L299.818 447.489ZM302.801 446.729C302.835 445.634 302.864 443.235 302.941 442.093L302.923 442.088C302.422 443.109 301.415 444.791 300.621 446.106L302.801 446.729ZM308.401 442.796C308.569 442.208 309.083 441.976 309.607 442.126C310.168 442.286 310.437 442.771 310.277 443.332C310.104 443.939 309.614 444.158 309.053 443.997C308.519 443.845 308.227 443.404 308.401 442.796ZM307.915 444.916C307.936 444.842 307.974 444.813 308.057 444.837L309.501 445.249C309.574 445.271 309.603 445.309 309.58 445.391L307.507 452.649C307.486 452.722 307.457 452.754 307.365 452.728L305.94 452.321C305.848 452.294 305.833 452.24 305.854 452.167L307.924 444.919L307.915 444.916Z" fill="#FF7C00"/>
<path d="M314.483 102.191C313.382 100.329 310.006 99.9424 305.783 100.962C304.453 96.8295 302.372 94.1467 300.208 94.1737C299.706 94.1762 299.21 94.3305 298.734 94.6117L299.49 95.8896C299.753 95.7337 299.996 95.66 300.231 95.6524C301.275 95.6386 302.619 97.1407 303.65 99.4856C303.905 100.061 304.137 100.69 304.353 101.343C303.068 101.732 301.716 102.245 300.345 102.87C298.945 102.267 297.573 101.779 296.267 101.414C297.109 98.5731 298.3 96.5851 299.492 95.8805L298.737 94.6026C297.161 95.5342 295.762 97.8771 294.828 101.059C291.597 100.355 288.876 100.463 287.301 101.394L288.056 102.672C289.242 101.971 291.561 101.877 294.448 102.497C294.144 103.814 293.908 105.245 293.772 106.756C292.558 107.659 291.458 108.596 290.5 109.541C290.03 109.046 289.604 108.547 289.22 108.055C287.656 106.025 286.983 104.127 287.488 103.217C287.599 103.012 287.796 102.834 288.059 102.678L287.304 101.4C286.823 101.685 286.448 102.045 286.199 102.487C285.137 104.367 286.487 107.474 289.466 110.616C286.552 113.824 285.271 116.955 286.369 118.812C287.47 120.674 290.846 121.06 295.069 120.041C296.398 124.173 298.479 126.856 300.644 126.829C301.145 126.827 301.642 126.672 302.123 126.388C303.699 125.456 305.098 123.113 306.032 119.932C309.263 120.636 311.983 120.528 313.559 119.596C314.04 119.311 314.415 118.951 314.664 118.509C315.726 116.629 314.376 113.522 311.397 110.38C314.303 107.185 315.58 104.048 314.483 102.191ZM304.762 102.78C304.987 103.644 305.174 104.562 305.326 105.501C304.82 105.181 304.303 104.868 303.763 104.569C303.228 104.267 302.683 103.986 302.145 103.716C303.03 103.355 303.903 103.04 304.762 102.78ZM305.745 110.434C305.756 111.472 305.731 112.477 305.659 113.44C304.849 114.019 304.007 114.571 303.136 115.086C302.271 115.597 301.382 116.069 300.493 116.502C299.614 116.101 298.72 115.647 297.819 115.144C296.939 114.651 296.093 114.122 295.278 113.568C295.18 112.59 295.127 111.585 295.113 110.58C295.103 109.542 295.127 108.538 295.2 107.574C296.01 106.995 296.851 106.443 297.722 105.929C298.588 105.417 299.477 104.945 300.365 104.513C301.244 104.914 302.139 105.367 303.04 105.871C303.919 106.364 304.765 106.892 305.58 107.447C305.673 108.428 305.731 109.43 305.745 110.434ZM307.156 108.595C307.919 109.18 308.637 109.792 309.295 110.408C308.653 111.036 307.953 111.658 307.205 112.263C307.225 111.655 307.238 111.037 307.227 110.417C307.22 109.802 307.192 109.192 307.156 108.595ZM304.96 118.145C304.102 117.91 303.206 117.612 302.283 117.253C302.812 116.971 303.35 116.677 303.882 116.361C304.421 116.043 304.947 115.716 305.452 115.379C305.332 116.355 305.162 117.283 304.96 118.145ZM298.701 117.29C297.816 117.651 296.943 117.966 296.084 118.227C295.859 117.362 295.672 116.444 295.519 115.506C296.025 115.825 296.543 116.138 297.083 116.437C297.623 116.736 298.163 117.021 298.701 117.29ZM295.886 102.861C296.744 103.096 297.639 103.395 298.563 103.753C298.034 104.035 297.496 104.33 296.963 104.645C296.425 104.963 295.899 105.29 295.394 105.627C295.513 104.651 295.684 103.723 295.886 102.861ZM293.641 108.744C293.621 109.351 293.608 109.97 293.618 110.59C293.626 111.204 293.65 111.808 293.686 112.405C292.923 111.82 292.205 111.208 291.547 110.592C292.193 109.971 292.892 109.349 293.641 108.744ZM292.696 118.984C290.156 119.318 288.173 118.96 287.641 118.06C287.109 117.16 287.747 115.244 289.268 113.185C289.635 112.682 290.062 112.174 290.513 111.668C291.503 112.598 292.624 113.513 293.865 114.395C294.043 115.899 294.307 117.313 294.646 118.62C293.974 118.778 293.32 118.902 292.696 118.984ZM300.62 125.351C299.577 125.364 298.233 123.862 297.202 121.517C296.947 120.941 296.714 120.313 296.498 119.66C297.784 119.271 299.136 118.758 300.506 118.133C301.907 118.736 303.278 119.224 304.584 119.589C303.743 122.43 302.551 124.418 301.359 125.122C301.098 125.269 300.85 125.346 300.62 125.351ZM311.632 112.948C313.195 114.978 313.869 116.876 313.363 117.786C313.252 117.991 313.056 118.169 312.792 118.325C311.606 119.026 309.288 119.121 306.4 118.5C306.704 117.184 306.94 115.752 307.076 114.241C308.29 113.338 309.391 112.401 310.348 111.456C310.822 111.957 311.254 112.452 311.632 112.948ZM311.578 107.821C311.211 108.325 310.784 108.832 310.333 109.338C309.342 108.408 308.221 107.493 306.98 106.611C306.803 105.107 306.539 103.693 306.2 102.386C306.872 102.228 307.526 102.105 308.155 102.019C310.696 101.685 312.679 102.043 313.211 102.943C313.737 103.846 313.099 105.762 311.578 107.821Z" fill="#2ED2FF"/>
<path d="M301.968 113.124C303.415 112.269 303.894 110.403 303.039 108.957C302.184 107.51 300.318 107.031 298.872 107.886C297.425 108.741 296.946 110.607 297.801 112.053C298.656 113.499 300.522 113.979 301.968 113.124Z" fill="#2ED2FF"/>
<g clip-path="url(#clip0_228_14471)">
<path d="M61.1191 243.691C56.6117 241.64 51.1773 243.455 49.0041 247.737L45.1881 255.26C44.1376 257.301 43.9953 259.69 44.7962 261.842C45.462 263.635 46.7069 265.154 48.3337 266.16C48.2796 267.265 48.4502 268.369 48.835 269.407C49.6545 271.597 51.322 273.366 53.4609 274.312C57.969 276.363 63.4031 274.548 65.5759 270.265L69.3919 262.743C70.4426 260.702 70.5849 258.312 69.7838 256.161C69.118 254.368 67.8733 252.849 66.2467 251.842C66.3007 250.738 66.13 249.633 65.7451 248.596C64.9258 246.405 63.2583 244.637 61.1192 243.691" fill="#FF3E00"/>
<path d="M61.398 270.068C59.7272 271.749 57.1854 272.209 55.0317 271.22C53.7449 270.651 52.7418 269.587 52.2488 268.269C52.1698 268.054 52.1057 267.834 52.057 267.611L51.9644 267.191L52.4145 267.236C53.454 267.34 54.5037 267.266 55.5182 267.016L55.7867 266.951L55.9001 267.19C56.0633 267.53 56.3416 267.801 56.6855 267.955C57.3339 268.253 58.0994 268.115 58.6028 267.609C58.7148 267.495 58.8087 267.364 58.8812 267.221L62.6988 259.697C62.889 259.327 62.9149 258.894 62.7702 258.504C62.6212 258.107 62.3189 257.786 61.9314 257.614C61.2827 257.316 60.517 257.455 60.0133 257.96C59.9014 258.075 59.8077 258.205 59.7353 258.348L58.2789 261.22C58.039 261.691 57.7284 262.123 57.358 262.501C55.6872 264.182 53.1454 264.641 50.9917 263.653C49.705 263.083 48.7018 262.02 48.2089 260.702C47.7271 259.408 47.8128 257.971 48.4449 256.743L52.2618 249.219C52.5016 248.747 52.8123 248.314 53.1831 247.936C54.8539 246.255 57.3956 245.796 59.5493 246.784C60.836 247.354 61.8392 248.417 62.3321 249.735C62.411 249.95 62.4751 250.17 62.5239 250.394L62.6165 250.814L62.1668 250.769C61.1272 250.665 60.0773 250.739 59.0626 250.988L58.7941 251.053L58.6808 250.814C58.5173 250.474 58.2391 250.203 57.8954 250.049C57.2469 249.751 56.4815 249.889 55.9781 250.395C55.866 250.509 55.7721 250.64 55.6996 250.783L51.8822 258.308C51.6919 258.677 51.6661 259.11 51.8111 259.5C51.9597 259.897 52.2619 260.218 52.6495 260.39C53.2982 260.688 54.0639 260.55 54.5675 260.044C54.6796 259.929 54.7735 259.799 54.846 259.656L56.3025 256.785C56.542 256.313 56.8524 255.881 57.2229 255.503C58.8938 253.823 61.4355 253.363 63.5892 254.352C64.8759 254.921 65.8791 255.984 66.372 257.302C66.8537 258.596 66.7681 260.034 66.1362 261.261L62.3192 268.786C62.0794 269.258 61.7687 269.69 61.3979 270.068" fill="white"/>
</g>
<path d="M486.229 375.764L491.571 348.729L501.915 357.525L500.711 363.616L494.581 358.116L493.974 361.186L497.049 363.886L496.015 369.121L492.929 366.471L491.427 374.072L486.229 375.764Z" fill="black"/>
<path d="M490.514 348.52L477.665 352.937L476.511 358.776L484.363 356.092L481.23 371.947L485.173 375.552L490.514 348.52Z" fill="black"/>
<mask id="mask0_228_14471" style="mask-type:alpha" maskUnits="userSpaceOnUse" x="476" y="348" width="26" height="28">
<path d="M486.229 375.766L491.571 348.731L501.914 357.527L500.711 363.617L494.58 358.117L493.973 361.187L497.049 363.887L496.014 369.122L492.929 366.473L491.427 374.073L486.229 375.766Z" fill="#C4C4C4"/>
<path d="M490.514 348.522L477.664 352.939L476.51 358.778L484.363 356.093L481.23 371.949L485.172 375.554L490.514 348.522Z" fill="#C4C4C4"/>
</mask>
<g mask="url(#mask0_228_14471)">
<path d="M475.708 343.991L507.087 350.192L501.145 380.263L469.766 374.063L475.708 343.991Z" fill="url(#paint0_linear_228_14471)"/>
</g>
<path d="M197.644 476.82L202.048 474.514L200.983 499.27L180.029 486.044L184.378 483.767L188.452 481.634L193.345 484.683L193.571 478.953L197.644 476.82Z" fill="#41B883"/>
<path d="M180.029 486.044L200.983 499.27L202.048 474.514L197.644 476.82L197.005 491.674L184.378 483.767L180.029 486.044Z" fill="#41B883"/>
<path d="M184.378 483.767L197.034 491.729L197.644 476.82L193.571 478.953L193.345 484.683L188.452 481.634L184.378 483.767Z" fill="#35495E"/>
<path d="M389.132 479.704L400.602 471.378L393.406 470.234L386.107 475.533L389.132 479.704Z" fill="#39CEFD"/>
<path d="M381.566 469.276L395.122 459.439L402.318 460.583L384.593 473.447L381.566 469.276Z" fill="#39CEFD"/>
<path d="M391.403 482.832L398.599 483.976L393.303 476.677L389.132 479.704L391.403 482.832Z" fill="#03569B"/>
<path d="M393.303 476.677L389.132 479.704L394.764 478.704L393.303 476.677Z" fill="url(#paint1_linear_228_14471)"/>
<path d="M386.107 475.532L390.278 472.505L393.306 476.676L389.134 479.703L386.107 475.532Z" fill="#16B9FD"/>
<path d="M400.602 471.378L393.303 476.677L398.599 483.978L391.403 482.834L386.105 475.533L393.406 470.234L400.602 471.378ZM395.122 459.439L381.566 469.276L384.593 473.447L402.318 460.583L395.122 459.439V459.439Z" fill="url(#paint2_radial_228_14471)"/>
<path d="M180.272 85.5466C178.755 84.1955 177.562 82.5281 176.8 80.5372C176.489 79.7081 176.268 78.8675 176.061 78.0045C176.061 78.0045 174.719 72.5126 178.238 67.5604C178.238 67.5604 179.368 65.7129 181.807 64.1879C181.807 64.1879 181.275 64.0584 180.975 64.0415C179.347 63.9495 177.456 64.7204 177.053 66.4434C176.93 66.9598 176.877 67.4769 176.775 67.9813C176.656 68.5509 176.43 69.1013 176.062 69.5542C175.744 69.9503 175.317 70.1613 174.94 70.4812C174.553 70.8072 174.205 71.2214 174.021 71.7046C173.825 72.2368 173.915 72.7387 174.153 73.2359C174.331 73.6302 174.566 74.0045 174.765 74.3867C175.358 75.5068 175.192 76.0208 174.774 77.087C174.592 77.5272 174.51 78.0195 174.513 78.49C174.543 79.9426 176.194 80.493 176.895 81.5629C177.039 81.783 177.152 82.0213 177.198 82.2856C177.256 82.5704 177.184 82.8214 177.166 83.0954C177.134 83.4612 177.194 83.8422 177.433 84.1307C177.673 84.4192 178.013 84.6206 178.33 84.8075C178.919 85.1256 179.548 85.35 180.186 85.5417C180.201 85.5194 180.239 85.5381 180.272 85.5466Z" fill="#51B8D5"/>
<path d="M202.116 77.9465C203.86 75.5276 203.811 73.1563 203.811 73.1563C204.229 68.8438 201.604 66.1084 201.604 66.1084C202.015 70.0006 201.234 71.5996 201.234 71.5996C201.563 64.2875 196.252 63.1261 196.252 63.1261C199.429 65.2997 199.731 70.0604 199.731 70.0604C200.123 74.2961 198.603 76.7906 198.603 76.7906C201.351 75.7899 202.181 73.0377 202.181 73.0377C200.911 78.9915 196.956 81.0801 196.956 81.0801C199.648 81.9444 201.981 80.3571 201.981 80.3571C199.254 82.9822 195.651 83.6829 191.997 83.0822C191.312 82.9739 190.629 82.8227 189.959 82.6225C189.959 82.6225 189.359 82.4495 189.227 82.389L189.211 82.3848C190.284 84.317 193.304 84.9183 193.304 84.9183C190.22 85.3536 187.766 83.7938 187.766 83.7938C187.766 83.7938 184.409 81.9213 183.689 77.9486C182.969 73.9759 186.208 71.118 186.208 71.118C190.094 70.8043 192.925 69.7552 192.925 69.7552C198.85 67.4732 196.975 65.002 196.975 65.002C195.677 62.6894 190.816 62.2888 190.816 62.2888C182.023 61.3546 178.244 67.5707 178.244 67.5707C174.726 72.5229 176.067 78.0147 176.067 78.0147C176.274 78.8777 176.495 79.7184 176.806 80.5475C178.089 83.9094 180.585 86.3328 183.813 87.8932C188.83 90.3101 193.961 89.1359 193.961 89.1359C201.642 87.5361 204.114 81.7463 204.114 81.7463C206.492 76.5939 205.404 72.9085 205.404 72.9085C203.663 77.3648 202.116 77.9465 202.116 77.9465ZM188.256 65.8973C188.563 65.7158 188.954 65.8175 189.137 66.1259C189.319 66.4343 189.219 66.8262 188.912 67.0076C188.606 67.189 188.214 67.0874 188.032 66.779C187.85 66.4705 187.949 66.0787 188.256 65.8973Z" fill="#51B8D5"/>
<path d="M196.959 64.9978C195.661 62.6852 190.8 62.2846 190.8 62.2846C182.007 61.3504 178.228 67.5665 178.228 67.5665C174.709 72.5186 176.051 78.0105 176.051 78.0105C176.243 78.9654 176.715 80.3237 176.715 80.3237C177.318 82.0207 178.283 83.3506 178.283 83.3506C179.202 84.6249 180.034 85.3543 180.034 85.3543C180.912 86.1393 181.232 86.3528 181.232 86.3528C181.203 86.328 181.018 86.132 181.018 86.132C181.018 86.132 179.361 84.3092 178.581 82.0788C178.581 82.0788 177.701 79.7964 178.164 77.3581C178.164 77.3581 178.516 72.7238 183.541 71.4874C183.541 71.4874 184.656 71.2721 185.07 71.2492C185.485 71.2262 186.171 71.1259 186.171 71.1259C190.057 70.8122 192.888 69.7631 192.888 69.7631C198.834 67.4689 196.959 64.9978 196.959 64.9978ZM188.919 67.0179C188.612 67.1993 188.22 67.0977 188.038 66.7892C187.856 66.4808 187.955 66.0889 188.262 65.9075C188.569 65.7261 188.96 65.8277 189.143 66.1362C189.325 66.4446 189.225 66.8365 188.919 67.0179Z" fill="#51B8D5"/>
<path d="M184.174 66.9783L180.042 67.9506C180.022 67.9627 179.889 67.9717 179.735 68.132C179.735 68.132 177.989 69.8718 179.016 70.7911C179.016 70.7911 179.65 71.3735 180.64 71.7176L184.367 69.2649L184.174 66.9783Z" fill="#51B8D5"/>
<path d="M180.272 85.5466C178.755 84.1955 177.562 82.5281 176.8 80.5372C176.489 79.7081 176.268 78.8675 176.061 78.0045C176.061 78.0045 174.719 72.5126 178.238 67.5604C178.238 67.5604 179.368 65.713 181.807 64.1879C181.807 64.1879 181.275 64.0584 180.975 64.0415C179.347 63.9495 177.456 64.7204 177.053 66.4434C176.93 66.9598 176.877 67.4769 176.775 67.9813C176.656 68.5509 176.43 69.1013 176.062 69.5542C175.744 69.9503 175.317 70.1613 174.94 70.4812C174.553 70.8072 174.205 71.2214 174.021 71.7046C173.825 72.2368 173.915 72.7387 174.153 73.2359C174.331 73.6302 174.566 74.0045 174.765 74.3867C175.358 75.5068 175.192 76.0208 174.774 77.087C174.592 77.5272 174.51 78.0195 174.513 78.49C174.543 79.9426 176.194 80.493 176.895 81.5629C177.039 81.783 177.152 82.0213 177.198 82.2856C177.256 82.5704 177.184 82.8214 177.166 83.0954C177.134 83.4612 177.194 83.8422 177.433 84.1307C177.673 84.4192 178.013 84.6206 178.33 84.8075C178.919 85.1256 179.548 85.35 180.186 85.5417C180.201 85.5194 180.239 85.5381 180.272 85.5466Z" fill="#51B8D5"/>
<path d="M202.116 77.9465C203.86 75.5276 203.811 73.1563 203.811 73.1563C204.229 68.8438 201.604 66.1084 201.604 66.1084C202.015 70.0006 201.234 71.5995 201.234 71.5995C201.563 64.2874 196.252 63.126 196.252 63.126C199.429 65.2997 199.731 70.0603 199.731 70.0603C200.123 74.2961 198.603 76.7906 198.603 76.7906C201.351 75.7899 202.181 73.0377 202.181 73.0377C200.911 78.9915 196.956 81.0801 196.956 81.0801C199.648 81.9444 201.981 80.357 201.981 80.357C199.254 82.9822 195.651 83.6829 191.997 83.0822C191.312 82.9739 190.629 82.8227 189.959 82.6225C189.959 82.6225 189.359 82.4495 189.227 82.389L189.211 82.3847C190.284 84.317 193.304 84.9183 193.304 84.9183C190.22 85.3535 187.766 83.7938 187.766 83.7938C187.766 83.7938 184.409 81.9213 183.689 77.9486C182.969 73.9759 186.208 71.118 186.208 71.118C190.094 70.8043 192.925 69.7552 192.925 69.7552C198.85 67.4732 196.975 65.002 196.975 65.002C195.677 62.6894 190.816 62.2888 190.816 62.2888C182.023 61.3546 178.244 67.5707 178.244 67.5707C174.726 72.5229 176.067 78.0147 176.067 78.0147C176.274 78.8777 176.495 79.7183 176.806 80.5475C178.089 83.9094 180.585 86.3328 183.813 87.8932C188.83 90.3101 193.961 89.1359 193.961 89.1359C201.642 87.5361 204.114 81.7463 204.114 81.7463C206.492 76.5939 205.404 72.9084 205.404 72.9084C203.663 77.3648 202.116 77.9465 202.116 77.9465ZM188.256 65.8972C188.563 65.7158 188.954 65.8174 189.137 66.1259C189.319 66.4343 189.219 66.8262 188.912 67.0076C188.606 67.189 188.214 67.0874 188.032 66.779C187.85 66.4705 187.949 66.0786 188.256 65.8972Z" fill="url(#paint3_linear_228_14471)"/>
<path d="M196.959 64.9978C195.661 62.6851 190.8 62.2845 190.8 62.2845C182.007 61.3503 178.228 67.5664 178.228 67.5664C174.709 72.5186 176.051 78.0105 176.051 78.0105C176.243 78.9654 176.715 80.3237 176.715 80.3237C177.318 82.0207 178.283 83.3506 178.283 83.3506C179.202 84.6248 180.034 85.3542 180.034 85.3542C180.912 86.1392 181.232 86.3527 181.232 86.3527C181.203 86.3279 181.018 86.132 181.018 86.132C181.018 86.132 179.361 84.3092 178.581 82.0788C178.581 82.0788 177.701 79.7964 178.164 77.358C178.164 77.358 178.516 72.7238 183.541 71.4873C183.541 71.4873 184.656 71.2721 185.071 71.2491C185.485 71.2262 186.171 71.1258 186.171 71.1258C190.057 70.8122 192.888 69.7631 192.888 69.7631C198.834 67.4689 196.959 64.9978 196.959 64.9978ZM188.919 67.0179C188.612 67.1993 188.22 67.0977 188.038 66.7892C187.856 66.4808 187.955 66.0889 188.262 65.9075C188.569 65.7261 188.96 65.8277 189.143 66.1361C189.325 66.4446 189.225 66.8364 188.919 67.0179Z" fill="url(#paint4_radial_228_14471)"/>
<path d="M184.174 66.9783L180.042 67.9506C180.022 67.9627 179.889 67.9717 179.735 68.132C179.735 68.132 177.989 69.8718 179.016 70.7911C179.016 70.7911 179.65 71.3735 180.64 71.7176L184.367 69.2649L184.174 66.9783Z" fill="url(#paint5_linear_228_14471)"/>
</g>
<circle cx="280.292" cy="269" r="104" fill="#34A0ED"/>
<g filter="url(#filter1_dd_228_14471)">
<path d="M220.792 341C220.792 336.582 224.373 333 228.792 333H331.792C336.21 333 339.792 336.582 339.792 341V385C339.792 389.418 336.21 393 331.792 393H228.792C224.373 393 220.792 389.418 220.792 385V341Z" fill="white"/>
<path d="M242.272 358V347.92H248.712V349.299H243.735V352.127H247.872V353.506H243.735V356.621H248.712V358H242.272ZM250.533 358V347.71H251.996V358H250.533ZM255.568 349.32H254.42L255.421 346.87H256.569L255.568 349.32ZM254.238 358V350.44H255.701V358H254.238ZM259.938 358.21C259.378 358.21 258.909 358.107 258.531 357.902C258.153 357.692 257.866 357.417 257.67 357.076C257.478 356.731 257.383 356.353 257.383 355.942C257.383 355.559 257.45 355.223 257.586 354.934C257.721 354.645 257.922 354.4 258.188 354.199C258.454 353.994 258.78 353.828 259.168 353.702C259.504 353.604 259.884 353.518 260.309 353.443C260.733 353.368 261.179 353.298 261.646 353.233C262.117 353.168 262.584 353.102 263.046 353.037L262.514 353.331C262.523 352.738 262.397 352.3 262.136 352.015C261.879 351.726 261.436 351.581 260.806 351.581C260.409 351.581 260.045 351.674 259.714 351.861C259.382 352.043 259.151 352.346 259.021 352.771L257.656 352.351C257.842 351.702 258.197 351.187 258.72 350.804C259.247 350.421 259.947 350.23 260.82 350.23C261.496 350.23 262.084 350.347 262.584 350.58C263.088 350.809 263.456 351.173 263.69 351.672C263.811 351.919 263.886 352.181 263.914 352.456C263.942 352.731 263.956 353.028 263.956 353.345V358H262.661V356.271L262.913 356.495C262.6 357.074 262.201 357.505 261.716 357.79C261.235 358.07 260.642 358.21 259.938 358.21ZM260.197 357.013C260.612 357.013 260.969 356.941 261.268 356.796C261.566 356.647 261.807 356.458 261.989 356.229C262.171 356 262.29 355.762 262.346 355.515C262.425 355.291 262.469 355.039 262.479 354.759C262.493 354.479 262.5 354.255 262.5 354.087L262.976 354.262C262.514 354.332 262.094 354.395 261.716 354.451C261.338 354.507 260.995 354.563 260.687 354.619C260.383 354.67 260.113 354.733 259.875 354.808C259.674 354.878 259.494 354.962 259.336 355.06C259.182 355.158 259.058 355.277 258.965 355.417C258.876 355.557 258.832 355.727 258.832 355.928C258.832 356.124 258.881 356.306 258.979 356.474C259.077 356.637 259.226 356.768 259.427 356.866C259.627 356.964 259.884 357.013 260.197 357.013ZM268.664 358.203C267.745 358.203 266.996 358 266.417 357.594C265.839 357.188 265.484 356.616 265.353 355.879L266.851 355.648C266.945 356.04 267.159 356.35 267.495 356.579C267.836 356.803 268.258 356.915 268.762 356.915C269.22 356.915 269.577 356.822 269.833 356.635C270.095 356.448 270.225 356.192 270.225 355.865C270.225 355.674 270.179 355.52 270.085 355.403C269.997 355.282 269.808 355.167 269.518 355.06C269.229 354.953 268.788 354.82 268.195 354.661C267.547 354.493 267.031 354.313 266.648 354.122C266.27 353.926 266 353.7 265.836 353.443C265.678 353.182 265.598 352.867 265.598 352.498C265.598 352.041 265.72 351.642 265.962 351.301C266.205 350.96 266.546 350.697 266.984 350.51C267.428 350.323 267.946 350.23 268.538 350.23C269.117 350.23 269.633 350.321 270.085 350.503C270.538 350.685 270.904 350.944 271.184 351.28C271.464 351.611 271.632 352.001 271.688 352.449L270.19 352.722C270.139 352.358 269.969 352.071 269.679 351.861C269.39 351.651 269.014 351.537 268.552 351.518C268.109 351.499 267.75 351.574 267.474 351.742C267.199 351.905 267.061 352.132 267.061 352.421C267.061 352.589 267.113 352.731 267.215 352.848C267.323 352.965 267.528 353.077 267.831 353.184C268.135 353.291 268.583 353.42 269.175 353.569C269.81 353.732 270.314 353.914 270.687 354.115C271.061 354.311 271.327 354.547 271.485 354.822C271.649 355.093 271.73 355.422 271.73 355.809C271.73 356.556 271.457 357.141 270.911 357.566C270.37 357.991 269.621 358.203 268.664 358.203ZM276.082 358V347.92H277.405L281.059 355.501L284.692 347.92H286.029V357.993H284.643V351.098L281.388 358H280.723L277.461 351.098V358H276.082ZM290.125 358.21C289.565 358.21 289.096 358.107 288.718 357.902C288.34 357.692 288.053 357.417 287.857 357.076C287.666 356.731 287.57 356.353 287.57 355.942C287.57 355.559 287.638 355.223 287.773 354.934C287.909 354.645 288.109 354.4 288.375 354.199C288.641 353.994 288.968 353.828 289.355 353.702C289.691 353.604 290.072 353.518 290.496 353.443C290.921 353.368 291.367 353.298 291.833 353.233C292.305 353.168 292.771 353.102 293.233 353.037L292.701 353.331C292.711 352.738 292.585 352.3 292.323 352.015C292.067 351.726 291.623 351.581 290.993 351.581C290.597 351.581 290.233 351.674 289.901 351.861C289.57 352.043 289.339 352.346 289.208 352.771L287.843 352.351C288.03 351.702 288.385 351.187 288.907 350.804C289.435 350.421 290.135 350.23 291.007 350.23C291.684 350.23 292.272 350.347 292.771 350.58C293.275 350.809 293.644 351.173 293.877 351.672C293.999 351.919 294.073 352.181 294.101 352.456C294.129 352.731 294.143 353.028 294.143 353.345V358H292.848V356.271L293.1 356.495C292.788 357.074 292.389 357.505 291.903 357.79C291.423 358.07 290.83 358.21 290.125 358.21ZM290.384 357.013C290.8 357.013 291.157 356.941 291.455 356.796C291.754 356.647 291.994 356.458 292.176 356.229C292.358 356 292.477 355.762 292.533 355.515C292.613 355.291 292.657 355.039 292.666 354.759C292.68 354.479 292.687 354.255 292.687 354.087L293.163 354.262C292.701 354.332 292.281 354.395 291.903 354.451C291.525 354.507 291.182 354.563 290.874 354.619C290.571 354.67 290.3 354.733 290.062 354.808C289.862 354.878 289.682 354.962 289.523 355.06C289.369 355.158 289.246 355.277 289.152 355.417C289.064 355.557 289.019 355.727 289.019 355.928C289.019 356.124 289.068 356.306 289.166 356.474C289.264 356.637 289.414 356.768 289.614 356.866C289.815 356.964 290.072 357.013 290.384 357.013ZM298.852 358.203C297.933 358.203 297.184 358 296.605 357.594C296.026 357.188 295.672 356.616 295.541 355.879L297.039 355.648C297.132 356.04 297.347 356.35 297.683 356.579C298.024 356.803 298.446 356.915 298.95 356.915C299.407 356.915 299.764 356.822 300.021 356.635C300.282 356.448 300.413 356.192 300.413 355.865C300.413 355.674 300.366 355.52 300.273 355.403C300.184 355.282 299.995 355.167 299.706 355.06C299.417 354.953 298.976 354.82 298.383 354.661C297.734 354.493 297.219 354.313 296.836 354.122C296.458 353.926 296.187 353.7 296.024 353.443C295.865 353.182 295.786 352.867 295.786 352.498C295.786 352.041 295.907 351.642 296.15 351.301C296.393 350.96 296.733 350.697 297.172 350.51C297.615 350.323 298.133 350.23 298.726 350.23C299.305 350.23 299.82 350.321 300.273 350.503C300.726 350.685 301.092 350.944 301.372 351.28C301.652 351.611 301.82 352.001 301.876 352.449L300.378 352.722C300.327 352.358 300.156 352.071 299.867 351.861C299.578 351.651 299.202 351.537 298.74 351.518C298.297 351.499 297.937 351.574 297.662 351.742C297.387 351.905 297.249 352.132 297.249 352.421C297.249 352.589 297.3 352.731 297.403 352.848C297.51 352.965 297.716 353.077 298.019 353.184C298.322 353.291 298.77 353.42 299.363 353.569C299.998 353.732 300.502 353.914 300.875 354.115C301.248 354.311 301.514 354.547 301.673 354.822C301.836 355.093 301.918 355.422 301.918 355.809C301.918 356.556 301.645 357.141 301.099 357.566C300.558 357.991 299.809 358.203 298.852 358.203ZM305.602 358.21C305.042 358.21 304.573 358.107 304.195 357.902C303.817 357.692 303.53 357.417 303.334 357.076C303.142 356.731 303.047 356.353 303.047 355.942C303.047 355.559 303.114 355.223 303.25 354.934C303.385 354.645 303.586 354.4 303.852 354.199C304.118 353.994 304.444 353.828 304.832 353.702C305.168 353.604 305.548 353.518 305.973 353.443C306.397 353.368 306.843 353.298 307.31 353.233C307.781 353.168 308.248 353.102 308.71 353.037L308.178 353.331C308.187 352.738 308.061 352.3 307.8 352.015C307.543 351.726 307.1 351.581 306.47 351.581C306.073 351.581 305.709 351.674 305.378 351.861C305.046 352.043 304.815 352.346 304.685 352.771L303.32 352.351C303.506 351.702 303.861 351.187 304.384 350.804C304.911 350.421 305.611 350.23 306.484 350.23C307.16 350.23 307.748 350.347 308.248 350.58C308.752 350.809 309.12 351.173 309.354 351.672C309.475 351.919 309.55 352.181 309.578 352.456C309.606 352.731 309.62 353.028 309.62 353.345V358H308.325V356.271L308.577 356.495C308.264 357.074 307.865 357.505 307.38 357.79C306.899 358.07 306.306 358.21 305.602 358.21ZM305.861 357.013C306.276 357.013 306.633 356.941 306.932 356.796C307.23 356.647 307.471 356.458 307.653 356.229C307.835 356 307.954 355.762 308.01 355.515C308.089 355.291 308.133 355.039 308.143 354.759C308.157 354.479 308.164 354.255 308.164 354.087L308.64 354.262C308.178 354.332 307.758 354.395 307.38 354.451C307.002 354.507 306.659 354.563 306.351 354.619C306.047 354.67 305.777 354.733 305.539 354.808C305.338 354.878 305.158 354.962 305 355.06C304.846 355.158 304.722 355.277 304.629 355.417C304.54 355.557 304.496 355.727 304.496 355.928C304.496 356.124 304.545 356.306 304.643 356.474C304.741 356.637 304.89 356.768 305.091 356.866C305.291 356.964 305.548 357.013 305.861 357.013ZM314.721 358.21C313.965 358.21 313.309 358.04 312.754 357.699C312.198 357.358 311.769 356.889 311.466 356.292C311.167 355.69 311.018 354.997 311.018 354.213C311.018 353.424 311.172 352.731 311.48 352.134C311.788 351.532 312.219 351.065 312.775 350.734C313.33 350.398 313.979 350.23 314.721 350.23C315.477 350.23 316.132 350.4 316.688 350.741C317.243 351.082 317.672 351.551 317.976 352.148C318.279 352.745 318.431 353.434 318.431 354.213C318.431 355.002 318.277 355.697 317.969 356.299C317.665 356.896 317.236 357.365 316.681 357.706C316.125 358.042 315.472 358.21 314.721 358.21ZM314.721 356.831C315.444 356.831 315.983 356.588 316.338 356.103C316.697 355.613 316.877 354.983 316.877 354.213C316.877 353.424 316.695 352.794 316.331 352.323C315.971 351.847 315.435 351.609 314.721 351.609C314.231 351.609 313.827 351.721 313.51 351.945C313.192 352.164 312.957 352.47 312.803 352.862C312.649 353.249 312.572 353.7 312.572 354.213C312.572 355.006 312.754 355.641 313.118 356.117C313.482 356.593 314.016 356.831 314.721 356.831Z" fill="#0F80D1"/>
<path d="M237.632 380V371.36H240.254C240.346 371.36 240.502 371.362 240.722 371.366C240.946 371.37 241.16 371.386 241.364 371.414C242.02 371.506 242.568 371.75 243.008 372.146C243.448 372.542 243.778 373.046 243.998 373.658C244.218 374.27 244.328 374.944 244.328 375.68C244.328 376.416 244.218 377.09 243.998 377.702C243.778 378.314 243.448 378.818 243.008 379.214C242.568 379.61 242.02 379.854 241.364 379.946C241.164 379.97 240.95 379.986 240.722 379.994C240.494 379.998 240.338 380 240.254 380H237.632ZM238.544 379.154H240.254C240.418 379.154 240.594 379.15 240.782 379.142C240.974 379.13 241.138 379.11 241.274 379.082C241.778 378.994 242.184 378.79 242.492 378.47C242.804 378.15 243.032 377.75 243.176 377.27C243.32 376.786 243.392 376.256 243.392 375.68C243.392 375.1 243.32 374.568 243.176 374.084C243.032 373.6 242.804 373.2 242.492 372.884C242.18 372.568 241.774 372.366 241.274 372.278C241.138 372.25 240.972 372.232 240.776 372.224C240.584 372.212 240.41 372.206 240.254 372.206H238.544V379.154ZM245.814 372.29V371.3H246.696V372.29H245.814ZM245.814 380V373.52H246.696V380H245.814ZM250.913 380.174C250.153 380.174 249.527 380.01 249.035 379.682C248.547 379.354 248.247 378.898 248.135 378.314L249.035 378.164C249.131 378.532 249.349 378.826 249.689 379.046C250.033 379.262 250.457 379.37 250.961 379.37C251.453 379.37 251.841 379.268 252.125 379.064C252.409 378.856 252.551 378.574 252.551 378.218C252.551 378.018 252.505 377.856 252.413 377.732C252.325 377.604 252.143 377.486 251.867 377.378C251.591 377.27 251.179 377.142 250.631 376.994C250.043 376.834 249.583 376.674 249.251 376.514C248.919 376.354 248.683 376.17 248.543 375.962C248.403 375.75 248.333 375.492 248.333 375.188C248.333 374.82 248.437 374.498 248.645 374.222C248.853 373.942 249.141 373.726 249.509 373.574C249.877 373.418 250.305 373.34 250.793 373.34C251.281 373.34 251.717 373.42 252.101 373.58C252.489 373.736 252.801 373.956 253.037 374.24C253.273 374.524 253.413 374.854 253.457 375.23L252.557 375.392C252.497 375.012 252.307 374.712 251.987 374.492C251.671 374.268 251.269 374.152 250.781 374.144C250.321 374.132 249.947 374.22 249.659 374.408C249.371 374.592 249.227 374.838 249.227 375.146C249.227 375.318 249.279 375.466 249.383 375.59C249.487 375.71 249.675 375.824 249.947 375.932C250.223 376.04 250.615 376.158 251.123 376.286C251.719 376.438 252.187 376.598 252.527 376.766C252.867 376.934 253.109 377.132 253.253 377.36C253.397 377.588 253.469 377.87 253.469 378.206C253.469 378.818 253.241 379.3 252.785 379.652C252.333 380 251.709 380.174 250.913 380.174ZM257.541 380.18C256.909 380.18 256.361 380.04 255.897 379.76C255.437 379.48 255.079 379.086 254.823 378.578C254.567 378.07 254.439 377.474 254.439 376.79C254.439 376.082 254.565 375.47 254.817 374.954C255.069 374.438 255.423 374.04 255.879 373.76C256.339 373.48 256.881 373.34 257.505 373.34C258.145 373.34 258.691 373.488 259.143 373.784C259.595 374.076 259.937 374.496 260.169 375.044C260.401 375.592 260.507 376.246 260.487 377.006H259.587V376.694C259.571 375.854 259.389 375.22 259.041 374.792C258.697 374.364 258.193 374.15 257.529 374.15C256.833 374.15 256.299 374.376 255.927 374.828C255.559 375.28 255.375 375.924 255.375 376.76C255.375 377.576 255.559 378.21 255.927 378.662C256.299 379.11 256.825 379.334 257.505 379.334C257.969 379.334 258.373 379.228 258.717 379.016C259.065 378.8 259.339 378.49 259.539 378.086L260.361 378.404C260.105 378.968 259.727 379.406 259.227 379.718C258.731 380.026 258.169 380.18 257.541 380.18ZM255.063 377.006V376.268H260.013V377.006H255.063ZM265.449 372.488C265.277 372.488 265.111 372.454 264.951 372.386C264.795 372.318 264.641 372.24 264.489 372.152C264.341 372.06 264.199 371.98 264.063 371.912C263.927 371.844 263.801 371.81 263.685 371.81C263.529 371.81 263.429 371.872 263.385 371.996C263.341 372.116 263.341 372.246 263.385 372.386H262.761C262.673 372.03 262.709 371.728 262.869 371.48C263.029 371.228 263.285 371.102 263.637 371.102C263.809 371.102 263.975 371.136 264.135 371.204C264.299 371.272 264.455 371.352 264.603 371.444C264.755 371.532 264.897 371.61 265.029 371.678C265.165 371.746 265.293 371.78 265.413 371.78C265.553 371.78 265.649 371.72 265.701 371.6C265.757 371.48 265.759 371.342 265.707 371.186H266.331C266.423 371.538 266.389 371.844 266.229 372.104C266.069 372.36 265.809 372.488 265.449 372.488ZM266.499 380V376.694C266.499 376.334 266.465 376.004 266.397 375.704C266.329 375.4 266.219 375.136 266.067 374.912C265.919 374.684 265.725 374.508 265.485 374.384C265.249 374.26 264.961 374.198 264.621 374.198C264.309 374.198 264.033 374.252 263.793 374.36C263.557 374.468 263.357 374.624 263.193 374.828C263.033 375.028 262.911 375.272 262.827 375.56C262.743 375.848 262.701 376.176 262.701 376.544L262.077 376.406C262.077 375.742 262.193 375.184 262.425 374.732C262.657 374.28 262.977 373.938 263.385 373.706C263.793 373.474 264.261 373.358 264.789 373.358C265.177 373.358 265.515 373.418 265.803 373.538C266.095 373.658 266.341 373.82 266.541 374.024C266.745 374.228 266.909 374.462 267.033 374.726C267.157 374.986 267.247 375.264 267.303 375.56C267.359 375.852 267.387 376.144 267.387 376.436V380H266.499ZM261.813 380V373.52H262.611V375.116H262.701V380H261.813ZM270.798 380.18C270.31 380.18 269.9 380.092 269.568 379.916C269.24 379.74 268.994 379.506 268.83 379.214C268.666 378.922 268.584 378.604 268.584 378.26C268.584 377.908 268.654 377.608 268.794 377.36C268.938 377.108 269.132 376.902 269.376 376.742C269.624 376.582 269.91 376.46 270.234 376.376C270.562 376.296 270.924 376.226 271.32 376.166C271.72 376.102 272.11 376.048 272.49 376.004C272.874 375.956 273.21 375.91 273.498 375.866L273.186 376.058C273.198 375.418 273.074 374.944 272.814 374.636C272.554 374.328 272.102 374.174 271.458 374.174C271.014 374.174 270.638 374.274 270.33 374.474C270.026 374.674 269.812 374.99 269.688 375.422L268.83 375.17C268.978 374.59 269.276 374.14 269.724 373.82C270.172 373.5 270.754 373.34 271.47 373.34C272.062 373.34 272.564 373.452 272.976 373.676C273.392 373.896 273.686 374.216 273.858 374.636C273.938 374.824 273.99 375.034 274.014 375.266C274.038 375.498 274.05 375.734 274.05 375.974V380H273.264V378.374L273.492 378.47C273.272 379.026 272.93 379.45 272.466 379.742C272.002 380.034 271.446 380.18 270.798 380.18ZM270.9 379.418C271.312 379.418 271.672 379.344 271.98 379.196C272.288 379.048 272.536 378.846 272.724 378.59C272.912 378.33 273.034 378.038 273.09 377.714C273.138 377.506 273.164 377.278 273.168 377.03C273.172 376.778 273.174 376.59 273.174 376.466L273.51 376.64C273.21 376.68 272.884 376.72 272.532 376.76C272.184 376.8 271.84 376.846 271.5 376.898C271.164 376.95 270.86 377.012 270.588 377.084C270.404 377.136 270.226 377.21 270.054 377.306C269.882 377.398 269.74 377.522 269.628 377.678C269.52 377.834 269.466 378.028 269.466 378.26C269.466 378.448 269.512 378.63 269.604 378.806C269.7 378.982 269.852 379.128 270.06 379.244C270.272 379.36 270.552 379.418 270.9 379.418ZM278.126 380.18C277.522 380.18 277.006 380.03 276.578 379.73C276.15 379.426 275.822 379.016 275.594 378.5C275.366 377.984 275.252 377.402 275.252 376.754C275.252 376.11 275.364 375.53 275.588 375.014C275.816 374.498 276.142 374.09 276.566 373.79C276.99 373.49 277.498 373.34 278.09 373.34C278.698 373.34 279.21 373.488 279.626 373.784C280.042 374.08 280.356 374.486 280.568 375.002C280.784 375.514 280.892 376.098 280.892 376.754C280.892 377.398 280.786 377.98 280.574 378.5C280.362 379.016 280.05 379.426 279.638 379.73C279.226 380.03 278.722 380.18 278.126 380.18ZM278.216 379.358C278.676 379.358 279.056 379.246 279.356 379.022C279.656 378.798 279.88 378.49 280.028 378.098C280.176 377.702 280.25 377.254 280.25 376.754C280.25 376.246 280.176 375.798 280.028 375.41C279.88 375.018 279.656 374.712 279.356 374.492C279.06 374.272 278.686 374.162 278.234 374.162C277.77 374.162 277.386 374.276 277.082 374.504C276.778 374.732 276.552 375.042 276.404 375.434C276.26 375.826 276.188 376.266 276.188 376.754C276.188 377.246 276.262 377.69 276.41 378.086C276.562 378.478 276.788 378.788 277.088 379.016C277.388 379.244 277.764 379.358 278.216 379.358ZM280.25 380V375.122H280.154V371.36H281.042V380H280.25ZM285.431 380.18C284.787 380.18 284.237 380.034 283.781 379.742C283.325 379.45 282.975 379.046 282.731 378.53C282.487 378.014 282.365 377.422 282.365 376.754C282.365 376.074 282.489 375.478 282.737 374.966C282.985 374.454 283.337 374.056 283.793 373.772C284.253 373.484 284.799 373.34 285.431 373.34C286.079 373.34 286.631 373.486 287.087 373.778C287.547 374.066 287.897 374.468 288.137 374.984C288.381 375.496 288.503 376.086 288.503 376.754C288.503 377.434 288.381 378.032 288.137 378.548C287.893 379.06 287.541 379.46 287.081 379.748C286.621 380.036 286.071 380.18 285.431 380.18ZM285.431 379.334C286.151 379.334 286.687 379.096 287.039 378.62C287.391 378.14 287.567 377.518 287.567 376.754C287.567 375.97 287.389 375.346 287.033 374.882C286.681 374.418 286.147 374.186 285.431 374.186C284.947 374.186 284.547 374.296 284.231 374.516C283.919 374.732 283.685 375.034 283.529 375.422C283.377 375.806 283.301 376.25 283.301 376.754C283.301 377.534 283.481 378.16 283.841 378.632C284.201 379.1 284.731 379.334 285.431 379.334ZM289.827 380V373.52H290.619V375.08L290.463 374.876C290.535 374.684 290.629 374.508 290.745 374.348C290.861 374.184 290.987 374.05 291.123 373.946C291.291 373.798 291.487 373.686 291.711 373.61C291.935 373.53 292.161 373.484 292.389 373.472C292.617 373.456 292.825 373.472 293.013 373.52V374.348C292.777 374.288 292.519 374.274 292.239 374.306C291.959 374.338 291.701 374.45 291.465 374.642C291.249 374.81 291.087 375.012 290.979 375.248C290.871 375.48 290.799 375.728 290.763 375.992C290.727 376.252 290.709 376.51 290.709 376.766V380H289.827ZM299.925 380.18C299.265 380.18 298.681 380.044 298.173 379.772C297.669 379.5 297.273 379.116 296.985 378.62C296.697 378.124 296.553 377.544 296.553 376.88V371.366L297.441 371.36V376.766C297.441 377.214 297.517 377.602 297.669 377.93C297.821 378.254 298.019 378.522 298.263 378.734C298.511 378.942 298.781 379.096 299.073 379.196C299.365 379.296 299.649 379.346 299.925 379.346C300.205 379.346 300.491 379.296 300.783 379.196C301.075 379.096 301.343 378.942 301.587 378.734C301.831 378.522 302.029 378.254 302.181 377.93C302.333 377.602 302.409 377.214 302.409 376.766V371.36H303.297V376.88C303.297 377.544 303.153 378.124 302.865 378.62C302.577 379.112 302.179 379.496 301.671 379.772C301.167 380.044 300.585 380.18 299.925 380.18ZM305.099 380V371.36H305.981V380H305.099Z" fill="#8E9BA4"/>
<path fill-rule="evenodd" clip-rule="evenodd" d="M315.292 371C315.292 370.172 315.963 369.5 316.792 369.5H318.792C319.62 369.5 320.292 370.172 320.292 371V371.5H321.292C322.12 371.5 322.792 372.172 322.792 373V375.616C322.792 375.624 322.792 375.631 322.792 375.639V378C322.792 378.828 322.12 379.5 321.292 379.5H314.292C313.463 379.5 312.792 378.828 312.792 378V375.639C312.791 375.631 312.791 375.624 312.792 375.616V373C312.792 372.172 313.463 371.5 314.292 371.5H315.292V371ZM314.292 372.5C314.015 372.5 313.792 372.724 313.792 373V375.285C315.037 375.747 316.384 376 317.792 376C319.199 376 320.546 375.747 321.792 375.285V373C321.792 372.724 321.568 372.5 321.292 372.5H314.292ZM319.292 371.5H316.292V371C316.292 370.724 316.515 370.5 316.792 370.5H318.792C319.068 370.5 319.292 370.724 319.292 371V371.5ZM321.792 376.346C320.535 376.77 319.19 377 317.792 377C316.393 377 315.048 376.77 313.792 376.346V378C313.792 378.276 314.015 378.5 314.292 378.5H321.292C321.568 378.5 321.792 378.276 321.792 378V376.346ZM317.292 375C317.292 374.724 317.515 374.5 317.792 374.5H317.797C318.073 374.5 318.297 374.724 318.297 375C318.297 375.276 318.073 375.5 317.797 375.5H317.792C317.515 375.5 317.292 375.276 317.292 375Z" fill="#8E9BA4"/>
<path d="M228.792 334H331.792V332H228.792V334ZM338.792 341V385H340.792V341H338.792ZM331.792 392H228.792V394H331.792V392ZM221.792 385V341H219.792V385H221.792ZM228.792 392C224.926 392 221.792 388.866 221.792 385H219.792C219.792 389.971 223.821 394 228.792 394V392ZM338.792 385C338.792 388.866 335.657 392 331.792 392V394C336.762 394 340.792 389.971 340.792 385H338.792ZM331.792 334C335.657 334 338.792 337.134 338.792 341H340.792C340.792 336.029 336.762 332 331.792 332V334ZM228.792 332C223.821 332 219.792 336.029 219.792 341H221.792C221.792 337.134 224.926 334 228.792 334V332Z" fill="#E3E9ED"/>
</g>
<g filter="url(#filter2_dd_228_14471)">
<path d="M17.3711 327.027C17.3711 322.609 20.9528 319.027 25.3711 319.027H189.371C193.789 319.027 197.371 322.609 197.371 327.027V439.027C197.371 443.445 193.789 447.027 189.371 447.027H25.3711C20.9528 447.027 17.3711 443.445 17.3711 439.027V327.027Z" fill="white"/>
<path d="M33.762 344.172C33.4053 344.172 33.077 344.109 32.777 343.982C32.477 343.855 32.2186 343.675 32.002 343.442C31.7853 343.205 31.627 342.924 31.527 342.597L32.227 342.387C32.347 342.744 32.5436 343.014 32.817 343.197C33.0936 343.38 33.4053 343.469 33.752 343.462C34.072 343.455 34.347 343.384 34.577 343.247C34.8103 343.11 34.9886 342.92 35.112 342.677C35.2353 342.434 35.297 342.152 35.297 341.832C35.297 341.342 35.1536 340.949 34.867 340.652C34.5836 340.352 34.2086 340.202 33.742 340.202C33.612 340.202 33.4753 340.22 33.332 340.257C33.1886 340.29 33.0553 340.339 32.932 340.402L32.562 339.817L35.362 337.232L35.482 337.532H31.812V336.827H35.972V337.542L33.532 339.872L33.522 339.582C34.022 339.519 34.462 339.575 34.842 339.752C35.222 339.929 35.5186 340.199 35.732 340.562C35.9486 340.922 36.057 341.345 36.057 341.832C36.057 342.292 35.957 342.699 35.757 343.052C35.5603 343.402 35.2886 343.677 34.942 343.877C34.5953 344.074 34.202 344.172 33.762 344.172ZM37.3493 344.027L37.3543 336.827H38.0943V341.227L40.5043 338.627H41.4843L38.9543 341.327L41.8143 344.027H40.7443L38.0943 341.427V344.027H37.3493Z" fill="#8E9BA4"/>
<path d="M185.371 340.027H47.3711" stroke="#E3E9ED"/>
<path d="M31.5391 372.688L31.5441 372.018L34.7991 369.078C35.0791 368.825 35.2641 368.585 35.3541 368.358C35.4474 368.128 35.4941 367.888 35.4941 367.638C35.4941 367.342 35.4241 367.073 35.2841 366.833C35.1441 366.593 34.9557 366.403 34.7191 366.263C34.4824 366.12 34.2174 366.048 33.9241 366.048C33.6174 366.048 33.3441 366.122 33.1041 366.268C32.8641 366.415 32.6741 366.608 32.5341 366.848C32.3974 367.088 32.3307 367.35 32.3341 367.633H31.5841C31.5841 367.197 31.6874 366.805 31.8941 366.458C32.1007 366.112 32.3807 365.84 32.7341 365.643C33.0874 365.443 33.4874 365.343 33.9341 365.343C34.3707 365.343 34.7624 365.447 35.1091 365.653C35.4591 365.857 35.7341 366.133 35.9341 366.483C36.1374 366.83 36.2391 367.217 36.2391 367.643C36.2391 367.943 36.2024 368.208 36.1291 368.438C36.0591 368.665 35.9474 368.877 35.7941 369.073C35.6441 369.267 35.4524 369.467 35.2191 369.673L32.3291 372.283L32.2141 371.983H36.2391V372.688H31.5391ZM37.4372 372.693L37.4422 365.493H38.1822V369.893L40.5922 367.293H41.5722L39.0422 369.993L41.9022 372.693H40.8322L38.1822 370.093V372.693H37.4372Z" fill="#8E9BA4"/>
<path d="M185.371 368.693H47.3711" stroke="#E3E9ED"/>
<path d="M33.8974 401.36V394.98L32.5424 395.795V394.97L33.8974 394.16H34.6424V401.36H33.8974ZM36.5339 401.36L36.5389 394.16H37.2789V398.56L39.6889 395.96H40.6689L38.1389 398.66L40.9989 401.36H39.9289L37.2789 398.76V401.36H36.5339Z" fill="#8E9BA4"/>
<path d="M185.371 397.36H47.3711" stroke="#E3E9ED"/>
<path d="M33.8889 430.177C33.4455 430.177 33.0455 430.074 32.6889 429.867C32.3355 429.66 32.0555 429.38 31.8489 429.027C31.6422 428.67 31.5389 428.27 31.5389 427.827V425.027C31.5389 424.584 31.6422 424.185 31.8489 423.832C32.0555 423.475 32.3355 423.194 32.6889 422.987C33.0455 422.78 33.4455 422.677 33.8889 422.677C34.3322 422.677 34.7305 422.78 35.0839 422.987C35.4405 423.194 35.7222 423.475 35.9289 423.832C36.1355 424.185 36.2389 424.584 36.2389 425.027V427.827C36.2389 428.27 36.1355 428.67 35.9289 429.027C35.7222 429.38 35.4405 429.66 35.0839 429.867C34.7305 430.074 34.3322 430.177 33.8889 430.177ZM33.8889 429.467C34.1855 429.467 34.4555 429.395 34.6989 429.252C34.9422 429.105 35.1355 428.91 35.2789 428.667C35.4222 428.424 35.4939 428.155 35.4939 427.862V424.992C35.4939 424.695 35.4222 424.425 35.2789 424.182C35.1355 423.939 34.9422 423.745 34.6989 423.602C34.4555 423.455 34.1855 423.382 33.8889 423.382C33.5922 423.382 33.3222 423.455 33.0789 423.602C32.8355 423.745 32.6422 423.939 32.4989 424.182C32.3555 424.425 32.2839 424.695 32.2839 424.992V427.862C32.2839 428.155 32.3555 428.424 32.4989 428.667C32.6422 428.91 32.8355 429.105 33.0789 429.252C33.3222 429.395 33.5922 429.467 33.8889 429.467ZM37.6374 430.027L37.6424 422.827H38.3824V427.227L40.7924 424.627H41.7724L39.2424 427.327L42.1024 430.027H41.0324L38.3824 427.427V430.027H37.6374Z" fill="#8E9BA4"/>
<path d="M185.371 426.027H47.3711" stroke="#E3E9ED"/>
</g>
<g filter="url(#filter3_dd_228_14471)">
<rect x="366.292" y="179" width="181" height="43" rx="8" fill="white"/>
<rect x="378.292" y="191" width="157" height="12" rx="3" fill="#F3F5F7"/>
<rect x="378.292" y="209" width="157" height="1" fill="#F3F5F7"/>
</g>
<g filter="url(#filter4_dd_228_14471)">
<rect x="128.659" y="149" width="106" height="60" rx="8" fill="white"/>
<path d="M136.659 167.801C136.659 161.836 141.495 157 147.46 157H169.857C175.823 157 180.659 161.836 180.659 167.801V190.199C180.659 196.164 175.823 201 169.857 201H147.46C141.495 201 136.659 196.164 136.659 190.199V167.801Z" fill="black"/>
<path d="M152.956 195.911C156.059 195.911 158.578 193.393 158.578 190.29V184.669H152.956C149.853 184.669 147.335 187.187 147.335 190.29C147.335 193.393 149.853 195.911 152.956 195.911Z" fill="#0ACF83"/>
<path d="M147.335 179.047C147.335 175.944 149.853 173.426 152.956 173.426H158.578V184.669H152.956C149.853 184.669 147.335 182.15 147.335 179.047V179.047Z" fill="#A259FF"/>
<path d="M147.335 167.805C147.335 164.702 149.853 162.183 152.956 162.183H158.578V173.426H152.956C149.853 173.426 147.335 170.908 147.335 167.805Z" fill="#F24E1E"/>
<path d="M158.577 162.183H164.199C167.302 162.183 169.82 164.702 169.82 167.805C169.82 170.908 167.302 173.426 164.199 173.426H158.577V162.183V162.183Z" fill="#FF7262"/>
<path d="M169.82 179.047C169.82 182.15 167.302 184.669 164.199 184.669C161.096 184.669 158.577 182.15 158.577 179.047C158.577 175.944 161.096 173.426 164.199 173.426C167.302 173.426 169.82 175.944 169.82 179.047Z" fill="#1ABCFE"/>
<rect x="186.659" y="158" width="40" height="22" rx="5" fill="#F3F5F7"/>
<path fill-rule="evenodd" clip-rule="evenodd" d="M194.659 198.4C198.193 198.4 201.059 195.535 201.059 192C201.059 188.465 198.193 185.6 194.659 185.6C191.124 185.6 188.259 188.465 188.259 192C188.259 195.535 191.124 198.4 194.659 198.4ZM194.302 189.734C194.057 189.571 193.741 189.555 193.481 189.695C193.221 189.834 193.059 190.105 193.059 190.4V193.6C193.059 193.895 193.221 194.166 193.481 194.305C193.741 194.445 194.057 194.429 194.302 194.266L196.702 192.666C196.925 192.517 197.059 192.267 197.059 192C197.059 191.732 196.925 191.483 196.702 191.334L194.302 189.734Z" fill="#1292EE"/>
<g clip-path="url(#clip1_228_14471)">
<rect x="204.659" y="190" width="22" height="4" rx="2" fill="#CCD4DA"/>
</g>
<path d="M227.342 216.346C227.807 216.713 228.482 216.26 228.471 215.589L228.227 200.687C228.217 200.099 227.673 199.776 227.213 200.085L217.133 206.85C216.672 207.159 216.611 207.889 217.019 208.21L227.342 216.346Z" fill="white"/>
</g>
<defs>
<filter id="filter0_d_228_14471" x="383.85" y="74.7344" width="29.264" height="29.264" filterUnits="userSpaceOnUse" color-interpolation-filters="sRGB">
<feFlood flood-opacity="0" result="BackgroundImageFix"/>
<feColorMatrix in="SourceAlpha" type="matrix" values="0 0 0 0 0 0 0 0 0 0 0 0 0 0 0 0 0 0 127 0" result="hardAlpha"/>
<feOffset dy="0.44199"/>
<feGaussianBlur stdDeviation="0.220995"/>
<feColorMatrix type="matrix" values="0 0 0 0 0 0 0 0 0 0 0 0 0 0 0 0 0 0 0.25 0"/>
<feBlend mode="normal" in2="BackgroundImageFix" result="effect1_dropShadow_228_14471"/>
<feBlend mode="normal" in="SourceGraphic" in2="effect1_dropShadow_228_14471" result="shape"/>
</filter>
<filter id="filter1_dd_228_14471" x="215.792" y="332" width="129" height="70" filterUnits="userSpaceOnUse" color-interpolation-filters="sRGB">
<feFlood flood-opacity="0" result="BackgroundImageFix"/>
<feColorMatrix in="SourceAlpha" type="matrix" values="0 0 0 0 0 0 0 0 0 0 0 0 0 0 0 0 0 0 127 0" result="hardAlpha"/>
<feMorphology radius="1" operator="erode" in="SourceAlpha" result="effect1_dropShadow_228_14471"/>
<feOffset dy="2"/>
<feGaussianBlur stdDeviation="2"/>
<feColorMatrix type="matrix" values="0 0 0 0 0.152941 0 0 0 0 0.192157 0 0 0 0 0.286275 0 0 0 0.06 0"/>
<feBlend mode="normal" in2="BackgroundImageFix" result="effect1_dropShadow_228_14471"/>
<feColorMatrix in="SourceAlpha" type="matrix" values="0 0 0 0 0 0 0 0 0 0 0 0 0 0 0 0 0 0 127 0" result="hardAlpha"/>
<feMorphology radius="1" operator="erode" in="SourceAlpha" result="effect2_dropShadow_228_14471"/>
<feOffset dy="4"/>
<feGaussianBlur stdDeviation="3"/>
<feColorMatrix type="matrix" values="0 0 0 0 0.152941 0 0 0 0 0.192157 0 0 0 0 0.286275 0 0 0 0.1 0"/>
<feBlend mode="normal" in2="effect1_dropShadow_228_14471" result="effect2_dropShadow_228_14471"/>
<feBlend mode="normal" in="SourceGraphic" in2="effect2_dropShadow_228_14471" result="shape"/>
</filter>
<filter id="filter2_dd_228_14471" x="14.3711" y="317.027" width="186" height="134" filterUnits="userSpaceOnUse" color-interpolation-filters="sRGB">
<feFlood flood-opacity="0" result="BackgroundImageFix"/>
<feColorMatrix in="SourceAlpha" type="matrix" values="0 0 0 0 0 0 0 0 0 0 0 0 0 0 0 0 0 0 127 0" result="hardAlpha"/>
<feOffset dy="1"/>
<feGaussianBlur stdDeviation="1"/>
<feColorMatrix type="matrix" values="0 0 0 0 0.152941 0 0 0 0 0.192157 0 0 0 0 0.286275 0 0 0 0.06 0"/>
<feBlend mode="normal" in2="BackgroundImageFix" result="effect1_dropShadow_228_14471"/>
<feColorMatrix in="SourceAlpha" type="matrix" values="0 0 0 0 0 0 0 0 0 0 0 0 0 0 0 0 0 0 127 0" result="hardAlpha"/>
<feOffset dy="1"/>
<feGaussianBlur stdDeviation="1.5"/>
<feColorMatrix type="matrix" values="0 0 0 0 0.152941 0 0 0 0 0.192157 0 0 0 0 0.286275 0 0 0 0.1 0"/>
<feBlend mode="normal" in2="effect1_dropShadow_228_14471" result="effect2_dropShadow_228_14471"/>
<feBlend mode="normal" in="SourceGraphic" in2="effect2_dropShadow_228_14471" result="shape"/>
</filter>
<filter id="filter3_dd_228_14471" x="363.292" y="177" width="187" height="49" filterUnits="userSpaceOnUse" color-interpolation-filters="sRGB">
<feFlood flood-opacity="0" result="BackgroundImageFix"/>
<feColorMatrix in="SourceAlpha" type="matrix" values="0 0 0 0 0 0 0 0 0 0 0 0 0 0 0 0 0 0 127 0" result="hardAlpha"/>
<feOffset dy="1"/>
<feGaussianBlur stdDeviation="1"/>
<feColorMatrix type="matrix" values="0 0 0 0 0.152941 0 0 0 0 0.192157 0 0 0 0 0.286275 0 0 0 0.06 0"/>
<feBlend mode="normal" in2="BackgroundImageFix" result="effect1_dropShadow_228_14471"/>
<feColorMatrix in="SourceAlpha" type="matrix" values="0 0 0 0 0 0 0 0 0 0 0 0 0 0 0 0 0 0 127 0" result="hardAlpha"/>
<feOffset dy="1"/>
<feGaussianBlur stdDeviation="1.5"/>
<feColorMatrix type="matrix" values="0 0 0 0 0.152941 0 0 0 0 0.192157 0 0 0 0 0.286275 0 0 0 0.1 0"/>
<feBlend mode="normal" in2="effect1_dropShadow_228_14471" result="effect2_dropShadow_228_14471"/>
<feBlend mode="normal" in="SourceGraphic" in2="effect2_dropShadow_228_14471" result="shape"/>
</filter>
<filter id="filter4_dd_228_14471" x="125.659" y="147" width="112" height="73.4768" filterUnits="userSpaceOnUse" color-interpolation-filters="sRGB">
<feFlood flood-opacity="0" result="BackgroundImageFix"/>
<feColorMatrix in="SourceAlpha" type="matrix" values="0 0 0 0 0 0 0 0 0 0 0 0 0 0 0 0 0 0 127 0" result="hardAlpha"/>
<feOffset dy="1"/>
<feGaussianBlur stdDeviation="1"/>
<feColorMatrix type="matrix" values="0 0 0 0 0.152941 0 0 0 0 0.192157 0 0 0 0 0.286275 0 0 0 0.06 0"/>
<feBlend mode="normal" in2="BackgroundImageFix" result="effect1_dropShadow_228_14471"/>
<feColorMatrix in="SourceAlpha" type="matrix" values="0 0 0 0 0 0 0 0 0 0 0 0 0 0 0 0 0 0 127 0" result="hardAlpha"/>
<feOffset dy="1"/>
<feGaussianBlur stdDeviation="1.5"/>
<feColorMatrix type="matrix" values="0 0 0 0 0.152941 0 0 0 0 0.192157 0 0 0 0 0.286275 0 0 0 0.1 0"/>
<feBlend mode="normal" in2="effect1_dropShadow_228_14471" result="effect2_dropShadow_228_14471"/>
<feBlend mode="normal" in="SourceGraphic" in2="effect2_dropShadow_228_14471" result="shape"/>
</filter>
<linearGradient id="paint0_linear_228_14471" x1="472.737" y1="359.027" x2="504.116" y2="365.228" gradientUnits="userSpaceOnUse">
<stop stop-color="#FF6F00"/>
<stop offset="1" stop-color="#FFA800"/>
</linearGradient>
<linearGradient id="paint1_linear_228_14471" x1="390.072" y1="480.566" x2="393.178" y2="478.311" gradientUnits="userSpaceOnUse">
<stop stop-color="#1A237E" stop-opacity="0.4"/>
<stop offset="1" stop-color="#1A237E" stop-opacity="0"/>
</linearGradient>
<radialGradient id="paint2_radial_228_14471" cx="0" cy="0" r="1" gradientUnits="userSpaceOnUse" gradientTransform="translate(383.703 459.259) rotate(9.03288) scale(28.9804)">
<stop stop-color="white" stop-opacity="0.1"/>
<stop offset="1" stop-color="white" stop-opacity="0"/>
</radialGradient>
<linearGradient id="paint3_linear_228_14471" x1="186.855" y1="91.0956" x2="191.535" y2="70.466" gradientUnits="userSpaceOnUse">
<stop stop-color="#EC0B8E"/>
<stop offset="0.4006" stop-color="#EB0B8E"/>
<stop offset="0.7036" stop-color="#A11D8B"/>
<stop offset="1" stop-color="#5C2E88"/>
</linearGradient>
<radialGradient id="paint4_radial_228_14471" cx="0" cy="0" r="1" gradientUnits="userSpaceOnUse" gradientTransform="translate(186.216 68.8893) rotate(-30.4044) scale(14.4467 14.5205)">
<stop stop-color="#EC0B8E"/>
<stop offset="0.1599" stop-color="#E80C8E"/>
<stop offset="0.3277" stop-color="#DB0F8D"/>
<stop offset="0.499" stop-color="#C6148C"/>
<stop offset="0.6729" stop-color="#A91B8B"/>
<stop offset="0.8469" stop-color="#83248A"/>
<stop offset="1" stop-color="#5C2E88"/>
</radialGradient>
<linearGradient id="paint5_linear_228_14471" x1="178.889" y1="70.683" x2="184.428" y2="67.4079" gradientUnits="userSpaceOnUse">
<stop stop-color="#EC0B8E"/>
<stop offset="0.3678" stop-color="#E10E8F"/>
<stop offset="0.9993" stop-color="#C41693"/>
</linearGradient>
<clipPath id="clip0_228_14471">
<rect width="30.5447" height="30.5447" fill="white" transform="translate(36.3711 253.627) rotate(-30.5916)"/>
</clipPath>
<clipPath id="clip1_228_14471">
<rect x="204.659" y="190" width="22" height="4" rx="2" fill="white"/>
</clipPath>
</defs>
</svg>
